<?xml version="1.0" standalone="no"?>
<!DOCTYPE svg PUBLIC "-//W3C//DTD SVG 20010904//EN"
 "http://www.w3.org/TR/2001/REC-SVG-20010904/DTD/svg10.dtd">
<svg version="1.0" xmlns="http://www.w3.org/2000/svg"
 width="700.000000pt" height="700.000000pt" viewBox="0 0 700.000000 700.000000"
 preserveAspectRatio="xMidYMid meet">
<metadata>
Created by potrace 1.11, written by Peter Selinger 2001-2013
</metadata>
<g transform="translate(0.000000,700.000000) scale(0.100000,-0.100000)"
fill="#000000" stroke="none">
<path d="M5520 6887 c-513 -75 -906 -444 -1016 -957 -21 -96 -25 -319 -8 -408
23 -113 20 -175 -9 -224 -28 -47 -2737 -2757 -2777 -2778 -32 -17 -121 -17
-190 0 -60 15 -279 20 -370 8 -476 -62 -890 -431 -1008 -898 -33 -130 -40
-190 -37 -339 3 -142 6 -166 32 -266 8 -33 16 -64 18 -70 2 -12 7 -24 47 -121
53 -131 155 -281 265 -389 156 -154 397 -281 609 -321 112 -21 334 -26 419 -9
17 3 55 10 85 16 332 63 656 308 819 619 62 121 112 273 127 395 15 113 9 312
-11 405 -14 62 -6 131 19 173 13 23 640 657 1393 1409 997 997 1376 1369 1398
1374 40 10 91 8 200 -9 89 -13 278 -15 345 -3 19 4 49 9 65 12 150 24 365 121
495 222 64 50 208 200 253 263 93 133 181 351 207 517 10 61 12 242 3 242 -2
0 -144 -142 -316 -315 -312 -314 -350 -345 -413 -345 -14 0 -191 55 -393 121
-334 111 -369 125 -402 158 -32 33 -47 70 -157 403 -67 201 -122 378 -122 393
0 61 33 100 332 400 167 166 309 309 317 319 13 16 8 17 -75 14 -49 -1 -114
-6 -144 -11z"/>
<path d="M322 6695 c-193 -194 -183 -170 -123 -275 17 -30 35 -62 40 -70 5 -8
72 -125 148 -259 76 -135 148 -257 160 -271 19 -23 65 -44 122 -55 125 -25
324 -82 356 -103 22 -14 422 -407 889 -874 466 -466 856 -848 865 -848 24 0
291 271 291 296 0 13 -281 301 -855 874 -542 542 -862 869 -875 894 -12 23
-43 131 -70 241 -44 179 -52 202 -77 222 -27 21 -658 385 -685 395 -7 3 -87
-69 -186 -167z"/>
<path d="M4077 2942 c-279 -279 -507 -513 -507 -519 0 -14 168 -183 182 -183
5 0 30 11 56 24 194 98 396 47 507 -129 39 -62 56 -119 56 -187 0 -71 -7 -99
-41 -175 -17 -36 -30 -73 -30 -81 0 -20 1357 -1379 1384 -1386 17 -5 109 82
524 498 396 396 503 508 500 524 -4 26 -1364 1392 -1385 1392 -8 0 -34 -11
-58 -25 -58 -35 -99 -46 -165 -46 -93 1 -162 22 -236 72 -145 98 -198 275
-130 438 14 36 26 78 26 94 0 30 -27 97 -40 97 -4 0 -29 22 -56 50 -27 27 -56
50 -64 50 -8 0 -243 -228 -523 -508z"/>
<path d="M6383 625 l-462 -464 47 -15 c242 -79 554 6 732 201 142 155 203 318
196 528 -4 103 -27 216 -44 214 -4 0 -215 -209 -469 -464z"/>
</g>
</svg>
